<svg width="52" height="52" viewBox="0 0 45 45" fill="none" xmlns="http://www.w3.org/2000/svg">
<path d="M19.1647 35.089C19.1647 34.6703 19.1647 34.2515 19.1647 33.8328C19.1677 33.8157 19.1671 33.7981 19.163 33.7812C19.1588 33.7644 19.1512 33.7485 19.1406 33.7346C19.1301 33.7208 19.1167 33.7092 19.1014 33.7007C19.0862 33.6921 19.0693 33.6868 19.0518 33.685C18.0034 33.3901 17.0358 32.8649 16.2209 32.1483C15.6273 31.6137 15.133 30.98 14.7605 30.2763C14.2356 29.2596 13.8862 28.1632 13.7269 27.0324C13.5296 25.6139 13.461 24.1807 13.5221 22.7502C13.5355 22.0832 13.57 21.4238 13.6466 20.7568C13.7687 19.4894 14.0916 18.2489 14.6036 17.0809C15.2357 15.6449 16.3826 14.4913 17.823 13.8428C18.8042 13.3983 19.8365 13.0737 20.897 12.8764C21.9369 12.6814 22.9899 12.5617 24.0475 12.5183C25.0008 12.4849 25.9552 12.4988 26.9071 12.56C28.2695 12.6169 29.6195 12.8403 30.9266 13.225C31.8956 13.5016 32.8175 13.9199 33.6617 14.4661C34.4843 15.0251 35.1496 15.7822 35.5949 16.666C36.1185 17.6982 36.4744 18.8058 36.6496 19.9478C36.7633 20.6258 36.8381 21.3096 36.8735 21.996C36.9233 22.8468 36.9175 23.7013 36.885 24.5483C36.8524 25.3953 36.7797 26.2176 36.6744 27.0475C36.5414 28.2932 36.1546 29.4992 35.5375 30.5927C34.7343 31.976 33.4475 33.0206 31.92 33.5296C30.8754 33.8917 29.7969 34.1494 28.7005 34.2989C27.8985 34.4088 27.0946 34.4884 26.2869 34.5206C25.6687 34.549 25.0504 34.5414 24.4322 34.5319C24.0819 34.5319 23.7336 34.4978 23.3852 34.4675C23.351 34.4611 23.3157 34.4649 23.2837 34.4784C23.2516 34.4919 23.2244 34.5145 23.2053 34.5433C22.5009 35.3808 21.7698 36.1956 21.0329 37.0065C20.8986 37.1545 20.7432 37.2822 20.5716 37.3855C20.4589 37.4587 20.3304 37.5046 20.1965 37.5196C20.0626 37.5345 19.927 37.5181 19.8007 37.4716C19.6744 37.4251 19.5609 37.3499 19.4694 37.252C19.3779 37.1541 19.3109 37.0363 19.2738 36.908C19.2009 36.6801 19.1647 36.4422 19.1667 36.2032C19.1647 35.828 19.1647 35.4585 19.1647 35.089ZM20.0165 36.6787L20.1065 36.5954L21.7047 34.8389C22.3197 34.1631 22.9341 33.4867 23.5479 32.8096C23.5781 32.7683 23.6188 32.7356 23.6659 32.715C23.7129 32.6944 23.7647 32.6865 23.8159 32.6921C24.0245 32.713 24.2331 32.7205 24.4437 32.7224C25.171 32.7224 25.8984 32.7224 26.6257 32.6713C27.286 32.6201 27.9445 32.5405 28.5991 32.4382C29.3039 32.3167 30.0016 32.158 30.6892 31.9626C32.2205 31.5552 33.4053 30.6836 34.1498 29.272C34.5894 28.4041 34.8651 27.464 34.9633 26.498C35.0796 25.5876 35.1493 24.6718 35.1719 23.7544C35.2058 22.6019 35.1264 21.4488 34.9346 20.3116C34.8016 19.4876 34.5623 18.684 34.2225 17.9203C33.79 16.9729 33.1775 16.1885 32.2339 15.6845C30.7868 14.9114 29.2211 14.5666 27.6076 14.3903C27.1501 14.3411 26.6927 14.3146 26.2333 14.2975C25.2927 14.2495 24.3501 14.2546 23.4101 14.3127C22.7341 14.3623 22.0617 14.4522 21.3965 14.5817C20.4184 14.7582 19.4721 15.0775 18.5886 15.5291C18.0764 15.7853 17.6118 16.1255 17.2143 16.5352C16.5702 17.2479 16.0977 18.096 15.8324 19.0155C15.5177 20.0865 15.3458 21.1936 15.3213 22.3087C15.2598 23.4237 15.2738 24.5417 15.3635 25.6549C15.4192 26.3173 15.5313 26.974 15.6984 27.6179C15.9471 28.6212 16.4295 29.553 17.1071 30.3388C17.8387 31.1404 18.7842 31.7211 19.8347 32.0138C19.9667 32.0536 20.0261 32.099 20.0261 32.2468C20.0146 32.7925 20.0261 33.3382 20.0261 33.8839L20.0165 36.6787Z" fill="#754A91"/>
<path d="M18.6771 19.7547C18.6637 19.3397 18.8914 19.0385 19.1671 18.7675C19.5306 18.4228 19.9311 18.1184 20.3614 17.8599C20.5577 17.7401 20.791 17.6945 21.0185 17.7314C21.246 17.7683 21.4525 17.8852 21.5998 18.0608C22.1205 18.6026 22.5865 19.1934 22.9913 19.8248C23.1918 20.1088 23.3431 20.4239 23.4392 20.757C23.4776 20.8871 23.4801 21.0249 23.4464 21.1562C23.4128 21.2875 23.3442 21.4074 23.2478 21.5036C23.027 21.7182 22.7917 21.9176 22.5434 22.1004C22.4184 22.1991 22.3254 22.332 22.276 22.4826C22.2267 22.6332 22.2232 22.7949 22.2659 22.9474C22.4192 23.6638 22.7666 24.3253 23.2708 24.8612C23.8835 25.6016 24.6729 26.1792 25.5676 26.5418C25.7875 26.6537 26.0394 26.6878 26.2816 26.6385C26.4142 26.6026 26.532 26.5264 26.6184 26.4206C26.7524 26.2519 26.8979 26.089 27.0185 25.909C27.1749 25.6844 27.4137 25.5293 27.684 25.4765C27.9543 25.4238 28.2347 25.4776 28.4655 25.6266C29.1143 25.9993 29.7269 26.4306 30.2953 26.9151C30.4293 27.0288 30.569 27.1387 30.703 27.2543C30.8615 27.374 30.976 27.5418 31.0289 27.7321C31.0818 27.9224 31.0702 28.1246 30.9959 28.3078C30.8776 28.6157 30.7052 28.9006 30.4867 29.1491C30.2152 29.5227 29.8693 29.8373 29.4704 30.0737C29.2797 30.1846 29.0654 30.2497 28.8447 30.2638C28.624 30.278 28.403 30.2408 28.1994 30.1552C26.6509 29.538 25.2039 28.6956 23.9062 27.656C22.637 26.6216 21.5279 25.4087 20.6141 24.0559C19.8452 22.9359 19.2335 21.7178 18.7957 20.4349C18.7491 20.2798 18.7108 20.1223 18.6809 19.9631C18.6724 19.894 18.6711 19.8241 18.6771 19.7547Z" fill="#754A91"/>
<path d="M25.2853 17.7386C26.581 17.7623 27.8271 18.2354 28.8065 19.0755C29.7859 19.9155 30.4364 21.0692 30.6446 22.3353C30.7285 22.7957 30.7733 23.2622 30.7786 23.7299C30.7786 23.8398 30.7499 23.9194 30.6312 23.9308C30.5126 23.9421 30.4819 23.8417 30.4819 23.7413C30.4997 22.7952 30.3035 21.8571 29.9077 20.9957C29.5744 20.288 29.0806 19.6659 28.4648 19.1778C27.849 18.6898 27.1277 18.349 26.3572 18.182C25.9498 18.0886 25.5331 18.0403 25.115 18.038C25.0742 18.0387 25.0336 18.0335 24.9944 18.0228C24.9609 18.0135 24.9325 17.9917 24.915 17.962C24.8975 17.9323 24.8923 17.897 24.9006 17.8636C24.9008 17.8478 24.9043 17.8322 24.9107 17.8177C24.9171 17.8031 24.9263 17.79 24.9379 17.7791C24.9495 17.7682 24.9632 17.7596 24.9781 17.754C24.9931 17.7483 25.009 17.7457 25.025 17.7462C25.1111 17.7348 25.1992 17.7386 25.2853 17.7386Z" fill="#754A91"/>
<path d="M28.9802 22.8772C28.9737 22.3508 28.8428 21.8332 28.5978 21.366C28.3528 20.8987 28.0006 20.4948 27.5695 20.1866C27.0663 19.8367 26.4814 19.6195 25.8698 19.5556C25.7665 19.5424 25.6631 19.5367 25.5578 19.5253C25.4526 19.5139 25.3894 19.4704 25.399 19.3643C25.4085 19.2581 25.4755 19.2203 25.5904 19.2278C27.2862 19.3302 28.7294 20.2794 29.1735 22.0473C29.2547 22.3882 29.2952 22.7373 29.2941 23.0875C29.2941 23.1197 29.2941 23.1519 29.2941 23.1823C29.2941 23.277 29.2328 23.3395 29.139 23.3376C29.1182 23.3369 29.0978 23.3321 29.079 23.3233C29.0601 23.3145 29.0433 23.302 29.0295 23.2866C29.0157 23.2712 29.0052 23.2531 28.9987 23.2335C28.9922 23.214 28.9898 23.1933 28.9916 23.1728C28.9763 23.0837 28.9802 22.9928 28.9802 22.8772Z" fill="#754A91"/>
<path d="M26.009 20.7663C26.9392 20.8288 27.588 21.2798 27.7661 22.2594C27.7876 22.3849 27.803 22.5114 27.812 22.6384C27.812 22.7407 27.789 22.8278 27.6761 22.8278C27.5632 22.8278 27.5249 22.7521 27.5211 22.6384C27.52 22.2629 27.4031 21.8966 27.1861 21.5887C26.958 21.3097 26.6306 21.128 26.2712 21.0809C26.1908 21.066 26.1097 21.0559 26.0281 21.0505C25.8941 21.0505 25.8195 20.9842 25.8367 20.8819C25.8539 20.7796 25.9343 20.7606 26.009 20.7663Z" fill="#754A91"/>
</svg>
