<svg width="50" height="50" viewBox="0 0 45 45" fill="none" xmlns="http://www.w3.org/2000/svg">
<path d="M12.5001 36.5002L14.2938 29.8367C12.8472 27.241 12.3876 24.212 12.9994 21.3055C13.6111 18.399 15.2531 15.8101 17.6241 14.0137C19.995 12.2174 22.9359 11.3341 25.9071 11.526C28.8783 11.7179 31.6804 12.9721 33.7994 15.0585C35.9183 17.1448 37.2118 19.9234 37.4427 22.8843C37.6735 25.8451 36.8261 28.7898 35.056 31.1777C33.2859 33.5657 30.7118 35.2369 27.8061 35.8847C24.9003 36.5324 21.8579 36.1132 19.237 34.704L12.5001 36.5002ZM19.5619 32.2105L19.9785 32.457C21.8769 33.5794 24.0941 34.0438 26.2847 33.778C28.4754 33.5122 30.5163 32.531 32.0895 30.9874C33.6627 29.4438 34.6797 27.4245 34.9822 25.2441C35.2847 23.0637 34.8556 20.8448 33.7617 18.933C32.6679 17.0213 30.9708 15.5242 28.9348 14.675C26.8989 13.8258 24.6385 13.6723 22.506 14.2383C20.3734 14.8042 18.4884 16.058 17.1448 17.8041C15.8012 19.5502 15.0744 21.6906 15.0776 23.8918C15.0759 25.7169 15.5819 27.5067 16.5394 29.0619L16.8007 29.4916L15.7979 33.2107L19.5619 32.2105Z" fill="#00D95F"/>
<path fill-rule="evenodd" clip-rule="evenodd" d="M29.6741 25.6028C29.4299 25.4063 29.1439 25.268 28.838 25.1984C28.532 25.1288 28.2142 25.1298 27.9087 25.2013C27.4497 25.3915 27.1531 26.1099 26.8565 26.4692C26.7939 26.5553 26.702 26.6157 26.598 26.639C26.494 26.6624 26.3851 26.647 26.2916 26.5959C24.6111 25.9394 23.2025 24.7355 22.2946 23.1797C22.2171 23.0826 22.1805 22.9593 22.1923 22.8358C22.2042 22.7123 22.2636 22.5982 22.3581 22.5176C22.6889 22.1909 22.9318 21.7863 23.0643 21.3413C23.0937 20.8503 22.981 20.3613 22.7395 19.9325C22.5528 19.3313 22.1975 18.7961 21.7155 18.3899C21.4669 18.2784 21.1913 18.241 20.9219 18.2822C20.6525 18.3235 20.4008 18.4416 20.1972 18.6223C19.8438 18.9265 19.5632 19.3059 19.3762 19.7326C19.1892 20.1592 19.1006 20.6223 19.1168 21.0877C19.1179 21.349 19.1511 21.6092 19.2156 21.8625C19.3796 22.471 19.6318 23.0524 19.9642 23.5882C20.204 23.9987 20.4657 24.3961 20.7481 24.7786C21.6658 26.0352 22.8193 27.1022 24.1448 27.9202C24.8099 28.3359 25.5207 28.6738 26.2633 28.9274C27.0347 29.2762 27.8863 29.4101 28.7279 29.3149C29.2073 29.2425 29.6616 29.0536 30.0507 28.765C30.4399 28.4764 30.7519 28.0967 30.9594 27.6596C31.0813 27.3955 31.1183 27.1002 31.0653 26.8143C30.9382 26.2297 30.1543 25.8845 29.6741 25.6028Z" fill="#00D95F"/>
</svg>
